# xmcd
#
# Track frame offsets: 
#        150
#        18999
#        38493
#        52236
#        74457
#        101283
#        123115
#        142780
#        159007
#        179064
#        193914
#        210688
#        222782
#        253349
#        277508
#        298456
#        318546
#        334601
#
# Disc length: 4764 seconds
#
# Revision: 0
# Processed by: cddbd v1.5.2PL0 Copyright (c) Steve Scherf et al.
# Submitted via: ExactAudioCopy v1.3
#
DISCID=0d129a12
DTITLE=Various Artist - Akella Presents - 201 - Blues-Relax  CD1
DYEAR=2019
DGENRE=Blues
TTITLE0=Billy Branch - Blue And Lonesome
TTITLE1=Gary Nicholson - Starting a Rumor
TTITLE2=Robert Randolph - Simple Man
TTITLE3=Mojo Makers - Fly on Baby
TTITLE4=Van Dyck Inc. - Feels Like Rain
TTITLE5=The 44 Dealers - Howlin' Wolf
TTITLE6=Carie and the Soulshakers - Inside Out
TTITLE7=Blatt Drivgods - Ferryman Take Me Home
TTITLE8=Baba Blues - Blues Is Gonna Be Your Friend
TTITLE9=Katie Knipp - Metro in Paris
TTITLE10=Heartbeats - Boys Come, Boys Go
TTITLE11=Uni Debess - Love In Vain
TTITLE12=Charlie Hunter and Lucy Woodward - Plain Gold Ring
TTITLE13=Barefoot Iano - Ain't No Sunshine
TTITLE14=Dave Plaehn - Animal Faces
TTITLE15=Johnny Blue Horn - Only a Fool (Gets to Heaven)
TTITLE16=Cradle Trio - She Don't
TTITLE17=Penta Swanson - There was Thunder There was Rain
EXTD=
EXTT0=
EXTT1=
EXTT2=
EXTT3=
EXTT4=
EXTT5=
EXTT6=
EXTT7=
EXTT8=
EXTT9=
EXTT10=
EXTT11=
EXTT12=
EXTT13=
EXTT14=
EXTT15=
EXTT16=
EXTT17=
PLAYORDER=
